P2
80 60
255
206 75 2 122 209 152 37 22 25 71 140 169 54 169 160 185 53 62 144 241 127 21 186 64 43 144 159 217 193 153 84 200 211 99 228 129 107 5 217 78 9 236 163 200 252 186 88 108 48 55 128 231 145 136 130 159 32 107 14 52
126 8 83 95 195 194 221 26 71 78 144 122 246 15 160 127 45 223 167 187 243 81 219 246 30 236 54 211 94 163 243 33 103 38 207 212 100 227 108 175 149 233 71 83 181 145 141 13 18 39 105 138 7 162 171 216 206 44 144 57
191 163 219 158 196 78 70 63 197 243 215 34 145 174 205 13 28 221 142 197 130 87 39 19 193 3 207 46 52 150 233 88 114 249 68 103 210 179 12 42 134 210 31 18 72 40 158 187 181 31 117 57 9 34 48 7 156 31 174 105
37 34 165 34 71 230 8 146 33 212 13 82 96 201 154 17 164 114 1 254 193 198 25 234 130 131 30 140 15 109 221 239 168 116 31 171 158 115 194 9 136 91 36 135 108 106 186 86 80 4 215 119 44 213 250 32 162 178 39 165
103 145 35 245 231 34 129 243 112 152 209 79 99 204 139 56 175 27 122 92 235 2 171 125 218 124 176 74 239 58 206 127 32 184 113 136 196 171 38 44 2 236 81 34 113 151 235 33 100 210 243 252 11 143 119 149 208 129 156 117
177 163 103 31 68 81 59 86 110 186 227 7 177 106 166 108 231 8 124 157 133 121 160 121 147 141 158 57 205 248 107 96 78 69 249 252 65 188 185 159 145 20 214 139 99 183 20 13 58 145 193 34 28 133 198 1 214 108 167 87
179 200 217 155 149 173 250 245 204 103 157 228 149 216 42 233 27 128 210 249 19 242 98 87 206 51 130 40 19 105 46 33 93 116 66 64 128 35 92 50 61 210 159 201 109 103 81 220 40 97 54 40 247 190 152 94 43 249 10 206
181 206 136 153 83 190 127 190 228 212 126 109 237 6 135 170 117 153 61 8 123 211 97 225 32 189 181 182 59 161 139 4 246 176 170 102 218 146 131 64 143 11 108 21 23 243 14 104 232 167 11 226 153 179 242 214 5 172 69 73
212 141 61 97 62 173 195 109 236 182 74 33 96 20 0 226 187 67 49 232 92 86 172 159 180 204 77 146 25 218 73 31 37 175 18 74 231 30 14 178 140 214 139 246 195 52 83 69 254 15 109 200 221 214 9 161 94 243 219 197
47 32 9 49 15 172 153 182 196 78 99 249 255 79 184 179 43 65 20 68 140 14 101 203 11 240 22 238 99 44 227 219 30 180 0 230 179 166 133 226 252 44 249 176 99 82 193 97 242 89 43 54 130 166 103 118 208 218 107 43
62 100 98 112 10 99 96 178 205 60 95 120 190 247 231 155 40 203 38 228 53 46 58 228 74 110 105 102 43 95 205 159 182 43 109 18 229 156 178 94 67 50 222 177 60 110 221 199 232 154 203 100 20 126 122 150 12 161 226 219
130 175 47 178 24 10 161 224 157 222 10 111 129 70 107 231 121 243 148 66 38 155 33 183 242 20 112 122 12 246 24 243 13 127 184 125 146 216 24 117 125 3 91 56 13 177 79 31 109 51 120 24 103 245 8 118 21 248 242 247
151 108 72 30 207 212 50 212 43 168 101 179 65 234 91 10 226 218 3 6 247 202 12 19 46 55 6 20 74 50 21 105 234 129 72 72 161 27 125 94 234 187 30 211 83 243 136 20 10 180 52 228 30 95 134 194 94 202 70 150
231 175 103 181 158 81 1 54 202 244 118 44 138 4 111 93 196 232 196 90 246 66 231 4 36 195 34 68 117 38 214 92 205 186 5 77 20 44 100 152 176 62 221 87 98 183 48 102 110 186 4 93 28 211 71 18 239 136 181 91
46 89 189 126 211 164 16 25 93 14 54 78 19 220 169 36 225 102 6 171 202 152 162 225 85 98 161 235 58 156 237 63 1 89 78 62 36 240 242 189 43 141 82 104 89 189 97 40 46 42 24 255 247 235 192 93 117 171 7 99
30 87 217 183 6 166 72 20 15 183 2 201 62 175 208 88 115 158 229 253 111 91 184 138 112 169 72 136 176 101 23 134 108 142 29 253 183 181 66 199 196 145 1 81 211 46 144 210 199 6 55 235 43 80 168 100 248 137 3 150
55 47 115 194 80 32 100 223 21 171 217 34 138 173 236 102 148 170 186 239 184 5 182 38 74 181 98 3 48 146 76 144 153 168 89 146 209 131 142 169 169 231 49 186 222 122 170 241 138 69 150 249 48 43 89 5 65 227 225 247
98 133 214 88 99 48 241 22 153 197 20 85 242 206 52 71 6 115 19 123 144 51 95 112 204 64 95 199 212 206 127 133 255 169 19 206 134 224 179 36 144 152 33 124 164 117 35 28 150 138 208 83 195 174 115 199 10 53 245 85
1 251 87 147 73 109 175 155 249 35 134 78 202 205 236 147 83 139 232 39 99 165 143 157 120 220 110 83 19 210 94 144 133 7 171 102 179 113 160 32 27 133 253 89 71 217 200 225 254 17 187 15 111 202 29 199 53 35 178 235
140 168 10 161 133 51 221 184 109 98 93 17 95 45 65 174 251 200 104 202 243 106 133 228 55 83 199 219 30 103 213 200 1 185 47 204 222 138 105 164 165 57 155 38 172 125 40 61 183 62 227 207 163 40 149 226 4 210 163 63
118 184 119 15 96 91 81 75 137 6 108 230 248 82 54 131 10 107 236 87 83 230 238 224 197 50 23 205 156 4 43 91 145 231 5 149 250 225 81 171 174 77 50 236 145 233 162 55 8 0 20 249 176 233 206 107 105 179 218 97
244 108 179 149 209 145 224 88 165 122 98 55 205 115 78 70 128 104 130 101 100 127 254 19 17 217 132 177 97 84 218 83 69 0 54 74 28 17 113 44 100 208 139 214 144 80 186 220 185 27 210 152 122 198 156 61 55 162 183 230
149 72 25 110 25 125 253 17 91 223 165 30 36 222 20 4 181 221 129 138 76 194 40 174 238 81 204 100 219 239 200 140 177 161 56 61 205 208 163 254 117 221 79 10 9 145 113 59 165 34 116 132 73 114 149 247 22 110 232 237
242 149 179 158 179 113 99 209 248 37 234 50 73 19 249 233 205 147 37 116 34 45 100 19 215 105 153 238 170 33 244 202 69 113 28 245 226 59 253 24 79 8 239 97 52 88 151 81 175 228 35 29 152 158 99 44 249 42 176 31
54 42 252 8 214 79 21 124 156 51 157 75 115 43 55 180 136 97 170 172 113 167 29 32 148 52 155 81 139 133 253 169 194 203 21 80 156 64 35 161 144 196 207 238 50 72 18 148 143 197 69 162 239 171 88 101 215 241 27 85
234 242 137 240 74 165 139 218 11 252 250 147 203 232 30 235 187 156 215 216 143 110 129 62 186 56 114 100 137 72 61 104 206 209 159 233 108 83 184 90 240 178 110 186 53 208 234 56 63 133 125 218 74 239 214 60 83 147 160 47
19 215 11 0 211 255 188 150 217 44 3 96 27 227 37 1 228 78 131 160 134 180 9 236 125 81 225 26 104 194 236 144 23 45 54 21 58 81 155 26 14 173 133 172 94 175 120 89 215 152 20 16 242 137 86 189 238 198 13 83
175 8 228 155 3 31 9 46 86 98 223 1 198 27 224 249 90 37 19 12 138 212 203 12 123 1 183 18 104 204 172 87 202 170 74 87 207 45 243 203 39 72 200 30 173 197 177 185 157 14 208 73 247 234 216 166 13 193 242 118
69 57 240 175 188 94 51 218 88 107 19 161 174 157 147 155 218 130 60 77 145 183 72 130 105 49 171 153 234 201 18 68 245 191 91 225 119 13 39 125 216 129 75 33 106 108 228 166 135 203 176 43 193 52 152 3 190 90 255 241
106 57 149 150 8 77 8 130 240 63 187 129 6 50 96 230 139 119 208 66 136 18 160 124 232 164 236 88 130 52 43 202 187 179 111 159 50 234 104 250 76 206 28 201 79 239 162 105 85 92 2 200 5 186 33 176 81 240 50 241
109 179 67 165 10 229 107 232 218 119 228 137 155 86 26 19 187 0 160 146 52 21 112 124 244 67 18 134 15 135 153 141 192 208 121 208 160 164 97 236 165 223 230 242 163 223 39 50 229 171 89 156 254 87 54 216 216 33 7 7
131 151 55 235 9 169 78 101 110 42 199 160 128 53 212 102 63 67 213 213 161 248 138 203 236 75 252 239 57 192 103 249 173 71 117 65 192 118 7 92 139 237 24 95 172 63 102 32 204 213 74 77 187 119 112 123 190 44 128 126
102 49 45 70 213 100 171 246 76 202 238 53 36 155 155 186 81 233 241 55 43 193 41 219 91 150 163 4 148 52 181 26 240 14 211 217 3 25 126 30 226 159 222 179 91 170 251 169 9 49 21 35 205 174 120 1 133 8 112 239
244 117 250 12 108 255 227 108 202 19 112 68 207 176 144 48 154 7 59 169 243 240 86 120 88 22 4 89 66 176 66 6 137 4 232 74 244 119 184 208 220 183 40 239 151 160 58 2 211 106 134 55 193 30 30 87 86 227 177 114
226 165 147 178 8 9 65 25 231 19 227 38 253 192 252 115 126 112 243 121 51 185 83 55 77 252 165 22 126 193 82 47 230 182 225 51 206 35 113 212 107 49 185 147 182 229 41 133 238 188 96 239 199 21 101 188 43 169 73 149
255 181 107 47 1 7 48 45 173 179 39 85 53 45 139 223 104 0 77 14 65 78 41 110 148 253 37 179 190 173 197 211 113 104 123 186 201 51 154 6 103 124 142 137 10 203 7 147 41 39 146 210 102 116 184 109 149 14 208 249
76 231 219 45 193 184 50 169 122 126 93 157 96 37 153 160 133 82 69 7 240 71 28 72 239 172 197 30 60 231 7 83 149 109 224 219 190 1 43 229 98 146 251 215 253 22 233 111 158 210 244 229 151 192 35 75 247 24 35 211
210 157 42 197 105 218 183 30 176 162 147 217 110 78 220 121 50 48 207 101 115 20 60 163 43 122 83 0 118 61 92 249 83 90 30 220 196 132 171 162 128 68 86 118 86 27 4 226 197 232 226 184 207 189 192 111 16 245 220 137
100 153 149 40 60 144 218 80 226 40 191 151 245 88 58 53 231 83 65 17 193 55 182 44 245 25 77 21 111 216 191 252 80 119 56 197 190 74 90 143 220 118 222 255 125 86 122 158 247 52 118 133 155 239 33 252 41 21 174 82
129 129 213 33 199 156 237 189 241 33 102 176 66 24 116 174 11 58 88 220 114 225 91 115 130 230 161 117 125 231 51 39 28 11 7 109 44 62 84 210 110 66 179 72 59 154 247 133 129 183 37 201 8 233 89 201 105 132 90 169
95 224 80 149 29 89 79 204 98 198 14 253 221 29 215 163 155 200 210 92 53 178 72 9 3 230 220 144 61 38 45 207 99 237 250 88 33 145 222 170 226 224 143 106 246 41 164 233 137 242 60 35 247 110 185 169 180 162 195 29
201 236 98 195 213 71 24 18 6 167 12 193 171 85 53 129 110 73 75 155 25 166 119 185 59 0 117 191 13 75 66 155 212 82 118 46 136 203 176 104 204 81 120 48 153 59 42 137 92 74 232 4 108 73 250 249 195 120 111 142
208 48 226 100 229 53 117 212 102 132 43 158 56 8 225 84 154 232 146 98 134 5 217 1 216 45 0 120 100 73 121 184 231 149 253 178 67 173 124 130 64 220 83 31 211 123 61 228 62 55 124 204 41 150 120 188 127 135 5 122
92 115 159 235 89 6 70 45 155 71 197 40 100 4 110 122 180 7 135 217 56 153 34 206 172 53 170 191 253 219 168 159 177 226 135 152 99 198 219 189 226 24 214 144 114 254 5 92 156 166 194 144 44 114 238 166 193 43 197 244
133 77 120 193 41 142 64 45 48 190 99 64 223 55 70 66 233 218 215 247 232 222 184 191 111 72 199 219 128 99 84 6 10 105 42 135 83 221 12 88 177 128 172 144 234 6 152 7 6 159 117 97 202 45 246 162 28 53 47 213
236 24 51 173 228 205 182 48 24 181 172 200 28 216 95 91 92 228 184 149 83 96 0 104 93 112 122 243 20 48 157 153 109 35 123 86 117 73 225 18 107 217 148 248 127 100 47 85 50 178 132 218 133 0 152 91 4 202 157 43
86 160 175 16 180 99 216 183 87 229 171 76 122 252 169 130 5 190 27 56 89 193 248 120 16 34 242 72 157 135 184 125 60 182 150 103 154 191 167 197 127 91 41 45 1 15 237 109 80 180 53 38 55 146 113 213 3 196 147 47
3 120 255 33 27 32 88 1 107 78 121 145 233 118 73 213 28 81 169 10 117 4 116 207 216 247 135 96 162 12 58 169 97 82 22 94 193 124 81 132 30 20 102 134 71 232 253 131 62 155 142 209 33 53 13 250 90 17 254 116
67 184 238 133 217 138 224 220 85 33 131 116 7 223 194 147 38 0 77 34 163 101 80 194 84 232 212 218 251 174 90 89 232 204 57 219 249 35 5 180 25 177 48 229 114 190 164 176 36 220 216 127 232 13 58 208 70 78 43 191
102 127 122 252 31 218 5 18 127 13 179 212 136 250 52 201 177 158 200 84 150 120 58 191 37 219 56 205 230 21 245 151 164 173 228 184 160 131 175 93 246 106 22 20 95 162 181 71 31 120 74 70 59 60 216 131 29 57 226 91
131 111 17 197 77 74 16 210 45 162 180 40 154 101 12 164 251 34 144 174 146 163 189 86 109 100 158 69 2 181 245 100 12 163 232 206 89 38 99 21 50 166 147 4 21 244 143 45 163 141 22 128 185 197 24 126 82 229 27 103
71 59 205 149 116 169 118 92 49 114 52 18 166 145 77 123 138 39 89 69 42 161 147 9 240 214 248 229 138 51 144 120 2 4 88 96 190 88 101 18 101 210 111 132 177 47 28 102 108 102 65 163 120 175 23 21 8 210 196 72
233 126 96 48 95 206 251 1 33 153 174 186 159 61 82 99 140 242 196 47 178 57 209 146 115 193 15 51 118 117 36 70 166 213 112 159 171 205 247 12 208 45 72 68 59 67 192 11 38 0 23 138 207 255 152 52 195 154 35 15
128 160 83 21 146 184 232 16 99 213 198 246 227 129 85 28 24 46 180 21 14 233 31 37 3 48 173 2 4 254 222 102 205 218 200 24 205 151 231 35 223 66 236 51 231 10 100 87 24 123 64 85 20 144 115 204 124 144 245 20
201 195 162 8 241 101 185 223 128 194 149 156 13 38 203 72 129 176 52 46 207 57 180 115 52 188 44 130 197 233 153 172 12 56 93 117 105 127 251 3 19 60 41 103 180 37 224 111 192 201 132 85 230 190 84 179 62 213 20 15
9 187 61 138 123 82 146 134 124 49 178 112 103 6 77 76 212 156 12 59 138 30 107 166 172 59 40 91 192 88 106 129 164 108 105 129 36 39 35 186 160 70 100 149 142 82 116 228 142 123 72 188 169 122 183 157 92 173 107 71
174 105 226 36 137 115 176 212 7 56 99 135 191 215 222 234 138 33 150 52 34 98 85 178 250 79 217 47 142 171 10 23 84 31 62 116 246 4 14 211 2 7 250 78 250 251 118 114 135 210 209 136 123 119 237 63 64 224 214 110
98 148 198 135 252 246 26 120 250 181 253 68 165 123 9 89 80 14 34 140 23 28 122 254 207 126 223 158 20 121 196 139 209 146 103 113 222 239 95 27 74 160 201 11 100 141 25 121 195 27 236 184 243 243 18 74 203 169 177 96
117 54 78 164 182 5 139 235 209 224 221 252 236 135 150 158 168 202 88 173 102 219 61 187 185 227 166 41 218 164 52 174 128 219 194 241 9 192 140 16 55 107 140 39 46 109 162 177 66 24 152 103 222 218 132 166 43 71 23 13
237 103 146 15 194 45 39 188 199 171 8 235 177 44 1 83 112 54 67 184 197 79 156 230 212 50 173 73 113 2 202 128 102 60 86 58 172 104 222 181 11 64 113 10 15 135 121 7 61 184 24 163 56 31 43 27 216 103 254 130
221 19 71 181 134 130 238 92 173 49 76 26 222 96 73 49 1 172 34 61 60 212 249 93 171 191 112 177 52 220 194 251 171 159 56 215 244 181 33 120 103 163 7 45 45 15 101 187 16 75 253 246 102 5 25 155 54 233 28 161
54 111 85 196 72 232 88 133 207 43 7 62 136 228 22 139 125 129 220 20 75 103 241 66 26 241 235 101 202 169 217 217 95 159 1 85 149 174 199 9 218 17 239 234 195 195 177 205 199 16 251 226 68 228 134 66 120 114 52 236
112 117 128 130 14 231 61 121 175 126 74 189 44 38 201 170 107 233 16 7 4 132 228 77 196 62 197 155 146 159 225 28 98 14 154 83 25 160 189 153 181 110 241 46 0 176 126 8 47 18 193 146 244 66 54 242 192 233 200 220
237 81 15 126 137 180 174 122 212 15 224 238 16 202 170 110 7 51 204 220 117 218 5 182 141 206 95 240 21 223 107 97 209 167 204 217 215 41 208 154 11 10 245 23 190 35 54 27 218 95 18 57 217 143 182 160 155 52 246 171
130 226 174 31 241 5 25 20 6 246 254 101 111 183 217 149 27 90 16 157 237 191 155 235 73 147 63 50 23 199 185 161 95 228 55 245 215 14 152 230 55 137 200 61 239 242 111 172 169 11 183 25 162 165 220 246 73 207 15 39
170 189 162 244 159 25 135 223 177 34 128 196 245 153 187 120 136 196 112 43 101 238 225 153 227 207 52 149 206 172 27 11 225 47 146 14 132 66 81 174 223 206 66 153 15 92 25 178 3 127 21 146 9 157 28 230 209 80 155 70
66 32 242 136 153 237 23 240 165 153 123 174 225 199 102 188 226 1 91 179 33 245 24 36 227 79 80 154 5 46 209 81 42 64 200 139 17 182 205 164 169 242 75 194 9 212 43 181 118 3 250 110 191 75 145 94 160 253 178 232
221 68 131 98 224 232 26 182 51 71 211 84 68 130 56 114 136 62 82 61 3 194 253 146 99 234 40 78 158 109 154 152 95 219 234 153 3 234 83 181 146 205 221 135 255 216 236 115 70 61 175 10 89 229 220 50 196 13 39 81
59 185 201 178 45 133 97 172 244 72 250 217 143 50 96 1 49 135 227 35 12 217 233 221 164 22 28 1 180 105 220 184 168 178 141 106 6 179 120 130 255 7 238 145 58 192 80 202 201 239 66 120 129 212 247 84 18 123 67 163
14 121 216 212 192 192 89 182 90 134 253 220 163 252 37 51 89 176 2 217 78 194 73 227 120 10 219 6 218 140 137 146 5 224 139 222 85 160 65 31 114 98 124 130 124 58 122 163 43 6 156 229 163 174 245 171 10 208 13 91
42 167 219 28 106 107 181 75 139 156 222 70 164 184 192 109 71 124 253 66 81 85 165 216 16 182 77 63 9 202 33 179 107 252 163 238 103 47 44 9 174 168 29 156 27 144 193 133 148 42 80 187 116 219 43 109 6 183 211 243
63 206 48 77 113 64 213 191 34 71 131 20 3 236 121 207 175 83 152 80 138 95 144 36 15 122 3 106 40 156 157 192 250 45 105 114 3 179 208 134 221 170 7 254 42 67 23 114 80 76 225 58 89 133 67 239 246 19 165 11
17 187 160 109 119 18 108 103 74 233 122 203 247 162 147 209 109 28 84 82 126 105 30 215 196 250 204 57 3 179 25 4 99 232 155 182 139 69 206 163 157 234 51 139 111 95 189 223 163 80 50 1 85 186 139 166 83 65 241 227
130 46 130 180 140 167 45 221 45 2 104 203 52 27 7 47 75 38 223 240 4 95 60 31 170 44 245 231 158 68 223 8 186 131 201 247 213 24 150 64 75 60 204 244 52 116 170 30 121 156 122 87 140 164 64 203 184 0 3 235
65 29 68 72 63 177 209 30 48 10 159 82 107 229 129 165 161 128 195 93 154 181 105 111 82 232 134 211 223 130 118 106 234 245 228 98 95 84 209 141 65 186 49 154 166 179 114 36 176 176 253 198 66 180 121 252 106 237 225 20
241 118 234 97 17 98 64 166 77 183 67 123 48 194 8 24 111 222 24 135 251 120 91 90 41 211 210 234 194 98 48 146 149 206 139 247 198 230 198 194 123 170 238 93 185 180 28 169 171 95 219 2 20 186 95 30 202 2 187 252
133 197 197 191 55 16 66 222 38 229 6 89 162 202 128 109 250 226 46 222 156 43 44 9 250 247 115 22 248 70 58 217 121 173 59 128 11 1 222 198 246 184 112 246 252 152 79 225 136 208 253 195 26 231 220 168 239 221 33 207
222 50 7 0 227 13 42 98 159 12 177 73 209 71 32 214 50 245 168 61 64 219 165 36 161 161 40 171 47 141 136 254 246 0 93 32 106 211 82 129 129 227 50 226 135 175 46 254 116 119 61 81 90 132 166 188 172 254 254 1
7 66 173 189 107 197 35 86 123 135 159 171 115 224 5 104 16 120 9 48 76 29 40 86 64 235 23 229 227 106 254 240 208 185 0 206 114 66 236 209 175 68 167 48 177 161 15 144 170 213 89 47 154 220 9 183 159 251 128 51
155 196 175 130 72 231 188 129 15 212 82 86 175 174 1 241 204 102 248 240 143 118 241 218 67 144 192 248 69 189 219 134 39 3 118 191 203 128 133 164 206 255 44 51 30 77 19 26 141 160 166 7 211 95 62 154 18 199 57 72
