P2
80 60
255
52 198 172 97 46 8 59 17 199 69 35 12 153 126 145 119 115 86 47 7 227 105 247 254 221 53 79 54 168 49 202 180 90 178 151 148 230 228 223 203 132 139 238 203 235 30 96 239 79 155 46 84 182 26 251 61 68 181 16 205 193 1 242 238 122 213 175 62 116 121 133 23 174 136 111 6 161 106 250 210 97 95 30 38 10 34 135 76 76 249 50 73 197 90 74 222 109 92 22 221 126 10 108 107 15 85 180 241 222 167 168 174 149 41 82 67 67 52 93 255 141 30 92 80 179 123 122 83 139 80 145 126 106 230 154 6 136 209 158 217 189 161 219 238 25 75 31 227 0 62 27 192 155 56 173 42 29 121 121 209 152 85 144 57 255 155 45 91 5 19 118 86 127 199 35 62 167 179 132 107 157 155 229 97 232 48 244 253 206 172 234 51 144 51 134 205 233 201 130 221 122 75 232 43 197 137 34 1 250 207 79 134 232 34 45 144 248 70 143 246 192 151 197 133 222 172 7 207 190 15 178 190 97 143 228 94 95 111 245 62 219 242 81 10 133 142 11 106 72 202 116 237 220 210 163 172 100 30 47 236 229 144 240 0 55 21 240 5 39 109 150 154 84 214 27 54 135 204 182 191 128 122 229 249 27 105 86 82 245 114 210 192 251 156 55 122 118 93 92 68 119 247 190 213 129 156 192 198 181 152 144 109 94 14 70 130 99 62 48 148 162 220 246 197 32 247 219 62 154 190 228 8 161 76 181 76 132 227 38 88 6 7 82 111 231 120 168 58 198 233 130 246 113 229 19 214 184 51 103 222 158 241 52 240 8 134 165 254 27 103 90 174 197 99 201 3 90 70 112 154 139 143 221 30 243 63 161 194 30 182 95 30 125 248 222 238 60 226 221 157 83 176 116 56 243 229 178 126 95 188 175 72 138 58 127 209 55 234 110 124 197 202 84 136 53 252 50 25 177 196 152 24 224 74 120 128 76 210 45 65 247 18 164 249 83 48 135 182 161 40 51 91 80 97 212 99 202 150 131 63 133 251 174 56 149 17 209 229 136 111 71 86 185 98 223 68 175 191 88 98 36 183 4 238 21 223 180 144 204 3 81 155 206 193 209 182 122 254 196 41 68 84 34 47 188 203 148 239 238 19 182 32 92 223 250 236 145 145 46 209 215 198 226 81 9 250 175 92 8 19 120 91 38 157 46 10 211 48 152 43 132 123 34 10 4 200 172 174 83 59 95 236 161 56 190 20 11 42 156 171 2 191 3 141 170 119 5 128 131 52 126 73 121 179 235 218 82 160 241 200 207 69 152 58 249 133 152 131 14 173 48 134 113 98 254 228 31 138 90 173 57 219 106 99 43 172 114 11 183 14 104 52 174 255 10 24 85 148 29 192 70 174 90 94 63 78 34 131 96 192 125 139 67 92 255 122 221 76 55 184 118 112 79 141 3 139 79 191 90 94 45 180 142 84 116 105 248 228 118 187 177 235 4 230 12 153 3 135 159 174 13 196 167 100 29 230 244 224 67 254 229 48 2 146 163 178 198 87 37 49 121 32 84 193 0 125 20 205 34 6 253 93 19 198 19 41 103 180 94 100 192 91 20 95 182 4 113 242 13 21 204 161 224 236 78 194 84 200 43 225 95 112 6 16 223 53 115 60 143 73 219 177 173 28 216 224 185 149 236 60 117 12 145 55 85 53 220 108 163 215 114 240 176 47 33 96 108 100 150 209 188 105 194 233 229 171 127 86 179 203 5 218 137 107 250 220 200 126 26 86 82 236 148 122 57 130 51 249 48 184 221 146 152 114 152 43 125 237 192 8 66 126 38 29 163 244 77 52 191 21 92 166 40 32 201 189 193 221 155 205 255 169 162 40 90 154 110 174 222 242 207 70 50 214 191 121 79 205 148 126 55 208 178 100 10 197 17 195 187 53 118 192 22 7 248 29 156 190 179 235 56 143 232 186 144 143 110 100 46 214 70 9 136 151 38 37 71 221 56 155 140 203 186 83 234 1 87 122 112 78 245 109 208 97 230 37 47 226 43 105 200 7 6 175 215 66 40 154 3 60 24 59 109 227 163 203 42 118 152 193 72 194 22 189 170 170 78 12 14 176 18 6 225 83 17 224 141 88 161 122 58 204 152 147 121 245 236 86 127 9 230 174 37 52 108 230 2 161 107 209 49 87 49 185 192 136 188 187 91 19 74 70 224 127 244 76 103 211 95 173 125 119 255 65 134 126 94 31 40 153 217 180 90 200 239 208 244 189 165 175 66 67 164 111 141 87 192 179 108 63 45 175 90 181 95 157 178 122 224 7 52 152 33 75 47 69 134 123 13 198 249 50 41 133 37 82 85 33 45 82 194 128 166 130 205 84 203 45 182 209 114 8 10 206 206 222 73 92 5 145 210 34 94 250 120 77 29 152 39 77 17 184 93 97 175 166 182 167 187 156 188 223 4 79 66 113 127 50 173 154 108 151 113 248 254 76 64 69 194 114 80 108 44 231 69 43 154 141 245 49 37 21 37 46 82 233 101 125 134 71 39 104 85 134 31 152 53 212 103 128 243 42 149 216 52 249 32 21 197 47 255 213 44 84 234 5 42 117 254 225 128 121 27 166 172 206 191 253 95 135 99 8 45 159 100 250 31 106 88 162 140 22 167 78 46 254 201 141 42 249 11 130 105 150 51 121 253 13 248 213 68 29 248 56 40 15 156 184 42 145 123 126 14 107 168 102 176 206 188 7 109 78 71 178 191 97 124 205 205 17 66 144 168 137 128 115 181 202 119 140 39 201 52 74 67 132 93 127 177 10 54 159 165 179 197 132 28 248 103 12 141 140 122 245 127 10 70 170 58 59 0 182 137 195 118 217 223 99 63 208 217 199 168 73 42 240 110 136 206 181 60 137 145 10 92 183 57 67 88 59 112 209 174 32 179 138 80 110 139 190 142 243 11 117 214 64 124 161 209 102 254 243 110 37 166 162 135 145 184 224 112 164 198 67 145 92 7 171 231 99 235 2 192 55 220 65 109 141 175 24 205 232 199 65 90 162 174 231 109 109 98 79 101 139 251 180 153 76 50 22 24 202 250 200 32 48 95 188 101 45 78 94 154 226 220 133 240 46 211 145 200 7 216 248 155 150 106 49 121 238 65 34 72 133 49 88 42 17 227 84 175 71 45 209 162 129 38 138 195 169 201 107 250 154 199 148 8 164 127 12 159 208 240 65 214 81 1 157 32 78 2 21 165 246 172 221 186 124 231 122 7 17 161 242 243 17 98 0 59 207 232 153 200 161 190 230 193 66 34 22 85 254 154 62 204 46 236 86 49 177 222 202 242 181 175 60 10 59 247 40 236 197 239 191 170 114 66 16 231 63 47 78 182 128 39 28 87 47 112 235 52 160 235 9 9 144 252 152 79 140 43 123 156 1 136 240 62 17 58 8 126 226 17 70 4 238 249 182 248 17 187 58 25 79 177 40 212 94 209 107 212 212 80 109 177 73 143 245 22 18 232 201 40 96 193 98 84 202 209 199 119 230 78 251 238 15 194 167 128 230 201 199 118 142 97 133 170 11 185 30 90 248 37 148 60 216 214 80 57 123 88 126 147 235 166 205 246 174 195 49 227 247 253 70 153 32 27 119 210 13 180 77 215 3 185 54 170 157 104 111 49 4 0 149 174 87 163 34 112 131 18 38 112 158 189 155 93 178 191 209 252 242 246 89 166 38 114 119 26 245 192 49 202 139 187 48 192 53 227 192 60 233 115 145 140 11 89 100 208 254 233 171 208 19 197 85 238 161 129 51 159 200 88 249 251 27 31 3 17 219 141 101 222 153 57 12 212 177 125 184 150 169 20 237 23 45 229 49 64 188 148 171 168 205 183 251 56 48 95 84 65 118 10 10 81 104 112 15 201 22 157 242 136 162 52 159 153 102 129 58 12 43 48 116 139 163 141 145 198 140 177 57 20 33 56 58 56 244 140 45 97 221 243 56 212 6 252 194 250 36 188 240 171 154 207 160 60 101 174 147 190 198 138 175 139 30 130 15 234 167 17 193 8 129 141 64 10 5 60 62 46 59 124 196 134 213 59 142 181 49 87 45 75 40 66 252 196 155 116 75 210 171 200 129 132 70 235 211 176 81 227 84 229 242 224 40 215 31 178 230 124 32 72 172 168 79 151 214 34 146 55 5 170 62 233 137 70 224 178 141 192 145 36 39 144 87 231 132 125 38 65 69 216 61 41 205 80 15 146 226 64 55 132 128 18 234 204 68 162 77 235 85 173 84 60 199 98 110 204 136 113 30 232 19 48 230 198 6 233 26 73 251 46 132 137 151 251 38 156 208 113 105 87 24 87 19 82 81 228 176 142 80 75 136 248 13 16 40 154 81 103 241 7 194 113 79 53 67 110 218 138 71 154 173 81 66 126 173 6 154 140 102 46 247 107 18 56 241 87 145 44 235 235 154 83 3 86 130 131 204 44 69 251 122 9 177 194 107 39 236 14 232 222 81 27 244 48 38 74 222 15 242 184 155 218 144 87 98 2 219 43 3 165 205 67 145 134 214 169 202 133 150 135 48 152 44 78 228 206 153 206 226 112 154 178 235 169 139 42 214 215 205 72 45 204 49 84 35 255 170 174 229 209 122 92 114 102 127 155 39 61 255 197 49 136 135 142 234 231 122 122 111 152 233 116 251 62 160 250 49 182 135 76 245 159 0 77 140 159 78 173 221 191 40 190 141 15 4 104 220 253 80 21 238 220 107 201 42 71 56 12 151 215 217 5 143 43 205 31 47 134 23 59 195 129 62 57 86 227 72 238 119 43 12 214 165 73 77 95 55 64 101 43 95 248 171 51 11 33 215 103 82 161 164 231 102 210 8 209 201 173 131 38 18 56 143 117 42 21 122 180 188 195 170 116 140 5 213 219 33 93 148 118 186 139 57 81 58 119 211 164 241 46 219 126 84 95 175 175 75 87 146 137 218 55 73 193 205 18 116 27 74 33 152 233 11 213 142 217 10 147 132 129 190 182 236 177 227 245 20 90 224 149 194 171 79 58 91 223 156 146 2 167 86 74 76 88 234 114 37 152 71 174 71 83 205 72 48 253 137 71 89 210 219 40 51 50 160 100 189 78 73 132 181 213 203 249 29 166 166 42 116 255 180 80 106 74 89 220 225 40 95 47 240 77 46 225 140 175 228 218 112 249 121 247 138 191 115 52 179 117 245 145 97 182 234 185 216 78 224 87 208 213 110 232 76 136 249 123 11 205 169 69 218 124 140 137 128 234 180 8 175 50 55 19 146 26 67 44 189 41 237 164 181 174 80 147 213 96 136 81 177 220 120 157 100 93 111 66 154 17 27 155 110 82 206 122 26 253 151 91 203 251 149 118 105 221 78 252 22 192 160 228 6 215 121 74 11 204 95 90 254 109 166 188 81 29 250 142 243 12 95 100 170 101 31 56 160 85 119 21 186 123 143 163 238 82 169 39 75 106 22 114 222 30 85 106 5 170 201 42 204 109 175 240 6 2 87 163 149 107 62 167 204 128 152 130 24 226 63 211 245 132 233 167 138 26 102 211 85 114 147 110 184 4 143 224 198 148 18 121 38 69 8 197 182 238 29 213 124 108 154 228 99 91 77 27 59 52 224 82 5 10 125 108 32 248 51 29 233 122 89 243 235 151 64 106 142 145 36 248 113 237 91 110 155 232 80 93 17 175 206 222 39 120 146 226 155 216 141 253 129 228 203 77 193 44 102 225 33 56 154 60 220 49 24 98 207 158 119 67 201 231 188 119 124 175 226 130 17 1 189 188 96 73 159 1 70 203 155 88 70 111 242 165 235 246 36 79 200 179 144 166 167 134 247 9 92 170 49 59 180 169 222 153 220 157 222 46 207 225 39 47 245 28 137 225 239 8 2 238 171 102 238 135 18 206 249 77 158 166 179 17 81 34 176 4 64 203 70 158 80 137 126 136 164 120 82 28 195 200 234 18 180 201 146 38 105 112 170 27 6 254 86 250 118 200 161 99 99 235 87 255 188 86 70 136 105 238 94 16 73 168 237 111 72 135 193 116 137 122 195 192 185 42 19 70 234 42 176 249 219 188 18 191 82 122 214 207 95 87 160 224 134 18 61 180 239 49 137 126 144 206 10 190 59 91 213 17 251 215 174 97 99 226 225 22 109 186 173 180 212 29 141 59 195 74 7 134 186 136 174 47 73 179 177 152 101 64 104 61 35 101 90 27 216 92 50 178 58 178 114 174 182 182 252 83 77 182 116 206 131 73 137 12 214 237 133 1 238 93 243 113 127 41 225 193 100 198 51 147 237 235 232 125 204 7 219 10 77 31 63 228 157 250 84 78 12 241 79 27 241 152 132 172 161 24 50 73 74 212 75 138 232 64 94 138 45 40 51 250 40 93 112 19 96 59 95 234 7 159 251 28 248 80 35 210 42 102 183 229 218 144 179 233 85 27 38 0 130 3 240 184 4 252 171 239 31 16 182 255 108 22 241 247 17 170 253 205 204 72 225 248 7 221 195 210 186 246 126 29 139 92 252 235 213 73 162 14 0 183 175 47 230 20 51 119 102 110 11 181 14 112 31 173 35 180 103 181 251 189 122 66 101 178 39 167 133 84 39 148 64 116 237 99 87 105 185 93 211 20 215 127 116 185 163 152 65 168 72 123 88 114 110 48 30 136 92 141 178 102 81 26 81 231 71 112 63 248 130 234 14 98 195 181 111 128 145 3 186 39 26 203 219 174 80 9 0 139 160 61 125 98 68 108 100 92 36 49 211 207 235 110 200 57 96 183 175 50 0 67 90 2 155 14 189 106 157 135 53 24 98 138 242 158 28 162 216 164 190 127 76 201 187 70 91 254 87 8 64 138 98 173 175 169 195 133 64 160 51 233 24 170 148 251 129 163 101 19 15 228 211 151 240 71 117 219 119 32 83 33 1 0 192 167 255 187 152 27 130 54 174 29 227 158 19 14 16 106 196 156 31 240 72 107 70 117 93 21 91 67 136 76 237 228 91 79 98 70 52 85 183 195 195 159 13 225 223 209 30 129 41 199 245 160 51 86 9 163 193 201 10 143 57 13 189 182 34 56 126 79 125 237 108 153 17 149 253 252 155 55 127 165 46 68 84 168 212 193 73 49 253 160 16 151 208 142 91 32 141 195 114 30 255 151 48 176 247 160 119 1 219 188 43 76 12 66 61 115 253 40 65 132 189 247 63 108 9 150 171 48 78 148 90 197 122 114 54 206 227 236 87 215 193 212 162 159 171 25 56 125 98 14 106 150 247 54 255 71 158 143 43 53 102 154 254 109 159 156 113 148 154 240 9 108 104 156 98 104 82 216 8 171 95 91 55 144 44 35 151 92 11 9 230 216 14 54 39 223 116 116 157 205 8 114 73 67 150 92 251 108 120 28 65 42 159 156 19 249 90 171 1 70 218 82 61 223 7 242 22 209 231 1 192 153 3 55 172 228 68 75 45 191 39 211 61 77 58 181 8 242 51 169 196 158 250 143 4 35 192 94 159 119 16 6 166 221 142 250 104 177 104 34 162 123 137 71 3 233 187 116 162 8 18 31 78 40 169 224 118 62 218 123 114 205 161 58 202 146 27 17 227 149 151 246 188 119 7 15 136 180 150 146 135 16 37 110 89 44 99 18 120 89 141 66 249 44 253 48 51 87 69 81 136 29 239 212 245 99 140 78 216 42 133 157 63 159 92 4 207 101 105 81 190 191 100 200 109 148 131 99 210 226 144 168 99 104 203 182 89 223 99 213 168 101 92 70 184 135 145 1 185 25 71 106 52 145 221 117 129 68 126 233 197 180 157 241 251 127 198 46 142 250 46 152 199 137 193 159 250 234 109 94 174 210 245 21 74 56 95 216 59 9 78 84 29 171 94 132 250 141 148 105 250 167 132 251 246 33 84 187 143 99 142 254 72 47 252 195 142 250 16 149 111 213 48 59 141 215 199 247 18 118 22 243 116 164 160 125 169 6 198 64 38 183 98 74 35 98 41 125 26 79 11 229 94 14 62 235 153 50 128 161 172 78 75 199 20 78 181 58 39 66 90 84 229 158 73 181 217 202 80 68 96 88 110 57 253 42 22 191 179 150 13 82 218 54 135 39 143 232 93 195 147 120 84 134 244 24 108 197 135 39 156 128 191 23 198 109 95 2 177 164 206 145 247 195 14 23 119 190 176 213 163 210 88 76 216 12 186 215 213 13 90 252 232 247 114 201 94 27 193 106 228 69 231 133 114 63 25 186 117 136 93 64 46 88 124 71 174 249 79 55 65 168 156 137 169 201 90 249 224 130 197 139 16 97 4 153 1 10 234 202 165 7 187 179 5 95 86 197 126 212 169 75 51 166 201 232 226 247 20 197 222 136 68 124 129 200 38 0 146 248 149 47 96 65 225 42 114 78 38 92 241 29 246 116 195 245 38 204 170 248 232 207 176 84 79 157 247 130 177 4 156 199 30 77 115 2 158 6 130 250 31 75 64 55 172 17 164 67 96 96 184 208 11 99 53 5 211 49 219 158 201 118 184 168 139 164 157 235 220 127 161 27 66 97 178 59 215 188 242 87 177 200 127 49 187 76 235 252 100 189 162 45 35 217 59 142 183 82 231 202 13 3 212 147 177 238 137 57 15 149 50 104 5 195 93 43 170 219 233 67 161 166 228 229 207 242 67 164 114 246 69 187 58 2 16 18 217 47 212 90 173 39 24 230 167 236 74 223 67 156 54 140 210 140 147 232 110 25 205 142 87 109 253 143 28 175 46 143 12 190 185 117 176 83 130 67 248 30 163 186 64 68 247 72 21 238 231 58 105 231 62 216 250 0 105 2 204 49 250 31 245 133 162 130 216 210 55 45 157 122 116 191 20 69 0 89 194 136 123 95 146 171 242 33 205 94 120 50 145 200 226 162 123 170 221 128 120 203 221 204 196 136 217 88 177 156 65 218 102 246 10 161 196 57 63 130 77 10 132 228 53 91 193 198 132 5 39 61 122 244 179 108 224 4 235 42 31 75 145 133 237 22 102 125 237 130 126 166 250 158 244 21 122 0 71 236 28 144 165 138 26 197 127 45 110 192 176 122 99 6 78 44 111 172 23 189 22 133 134 36 138 118 41 76 33 239 121 92 131 96 202 87 210 63 67 32 70 46 167 151 66 146 103 208 25 199 35 183 223 11 50 141 237 51 56 60 255 105 219 88 164 151 164 58 7 194 37 101 228 11 86 208 88 80 54 205 203 102 138 58 232 178 86 181 136 173 246 41 182 16 166 135 102 215 36 221 215 118 29 193 64 168 105 107 1 128 195 162 203 223 235 158 187 213 188 179 67 183 200 159 115 43 171 53 109 194 194 211 178 190 218 42 170 86 221 50 153 177 218 208 40 134 215 130 161 180 151 28 210 80 199 228 75 102 71 244 186 233 28 92 19 72 100 206 37 112 187 251 143 225 133 85 63 25 79 175 241 124 245 243 200 173 178 197 170 116 249 17 180 202 250 143 4 35 2 19 206 142 219 198 211 207 93 59 224 99 243 169 83 153 176 220 234 166 36 25 86 50 24 93 18 75 64 104 191 108 210 12 195 78 53 216 15 3 61 198 161 175 92 99 119 213 90 249 82 9 164 157 138 172 31 218 41 51 81 70 28 10 169 243 18 68 71 106 63 254 210 179 207 109 31 161 195 213 165 15 199 71 244 142 163 158 26 186 41 36 91 83 30 250 169 11 45 145 251 86 23 34 131 28 134 161 7 128 117 85 205 89 231 4 58 148 227 228 180 56 176 158 17 73 71 176 20 136 96 137 163 89 195 198 58 103 109 148 240 168 184 201 118 152 145 13 110 109 199 82 86 199 79 122 82 51 23 5 223 235 206 17 127 83 118 1 138 217 157 59 216 168 50 189 145 225 20 38 148 238 123 141 243 38 108 103 64 131 64 52 133 87 118 10 82 23 86 160 177 61 35 239 152 249 132 145 184 151 164 66 74 188 210 68 226 186 12 240 62 34 19 115 139 97 181 107 130 66 52 211 246 36 173 216 207 44 63 3 137 46 147 150 31 95 103 103 96 212 3 117 93 219 162 142 81 213 214 114 68 152 161 0 232 63 224 162 114 189 208 10 121 27 208 15 52 18 65 202 40 66 8 183 190 188 21 30 146 249 34 127 87 113 213 88 243 83 201 238 144 23 224 128 177 130 40 170 175 227 155 181 172 192 42 83 84 212 176 204 42 199 246 7 207 167 231 142 217 69 248 4 197 56 167 33 86 28 211 40 122 150 53 239 107 193 52 201 155 226 24 39 148 157 93 48 100 146 225 70 135 189 197 77 205 132 184 86 224 214 190 175 203 215 194 174 221 17 104 132 187 107 69 139 171 234 175 135 215 142 36 177 191 229 49 4 213 62 193 88 221 169 31 187 255 48 228 2 138 204 46 91 152 183 169 149 28 86 188 94 224 131 162 225 42 193 243 173 237 44 184 27 194 45 202 0 62 77 73 45 175 55 29 29 75 58 20 177 39 216 237 71 41 1 112 73 67 156 35 208 40 225 14 148 40 96 211 160 110 5 76 106 9 229 237 149 144 226 194 45 9 84 249 44 216 88 41 233 155 19 21 111 245 52 68 198 23 44 232 78 237 172 186 169 60 196 206 152 151 214 37 103 181 39 154 146 33 69 167 185 253 57 203 191 15 95 131 39 188 34 254 197 167 48 37 185 84 117 164 138 206 16 229 139 62 48 191 116 109 160 147 180 243 76 152 165 180 66 162 213 47 238 186